# xmcd
# 
# Track frame offsets:
#     150
#     15398
#     33671
#     53339
#     69342
#     86707
#     103119
#     119118
#     134832
#     153276
#     170932
#     186939
#     199998
#     215135
#     229367
#     242094
# 
# Disc length: 3423
# 
# Revision: 0
# Processed by: cddbd v1.5.2PL0 Copyright (c) Steve Scherf et al.
# Submitted via: BonkEnc v1.0.8
# 
DISCID=f30d5d10
DTITLE=Various Artist - My Country CD1
DYEAR=2010
DGENRE=Country
TTITLE0=Kenny Chesney - Don't happen twice
TTITLE1=Taylor Swift - Should've said no
TTITLE2=Zac Brown Band - Toes
TTITLE3=Carrie Underwood - All-American Girl
TTITLE4=Tim McGraw - When the stars go blue
TTITLE5=Rodney Atkins - If you're going through hell
TTITLE6=Sugarland - All I Want to do
TTITLE7=Toby Keith - Should've been a cowboy
TTITLE8=Trace Adkins - Honky Tonk Badokadonk
TTITLE9=Montgomery Gentry - Roll with me
TTITLE10=Terri Clark - Girls lie too
TTITLE11=Dwight Yoakam - A long way home
TTITLE12=Big and Rich - Save a horse (Ride a cowboy)
TTITLE13=John Michael Mongomery - Life's a dance
TTITLE14=Trick Pony - Pour me
TTITLE15=Melissa Lawson - What if it all goes right
EXTD=
EXTT0=
EXTT1=
EXTT2=
EXTT3=
EXTT4=
EXTT5=
EXTT6=
EXTT7=
EXTT8=
EXTT9=
EXTT10=
EXTT11=
EXTT12=
EXTT13=
EXTT14=
EXTT15=
PLAYORDER=
